<?xml version="1.0" standalone="no"?>
<!DOCTYPE svg PUBLIC "-//W3C//DTD SVG 20010904//EN"
 "http://www.w3.org/TR/2001/REC-SVG-20010904/DTD/svg10.dtd">
<svg version="1.0" xmlns="http://www.w3.org/2000/svg"
 width="500.000000pt" height="500.000000pt" viewBox="0 0 500.000000 500.000000"
 preserveAspectRatio="xMidYMid meet">

<g transform="translate(0.000000,500.000000) scale(0.100000,-0.100000)"
fill="#000000" stroke="none">
<path d="M4570 2836 l0 -36 -285 0 c-183 0 -285 -4 -285 -10 0 -6 102 -10 286
-10 l285 0 -3 -22 -3 -23 -285 -5 -285 -5 288 -3 287 -2 0 -286 c0 -187 3
-283 10 -279 6 4 10 110 10 286 0 272 0 279 20 279 20 0 20 -7 20 -285 0 -183
4 -285 10 -285 6 0 10 101 10 284 l0 285 33 4 32 4 -32 1 c-28 2 -33 6 -33 27
0 21 5 25 30 25 17 0 30 5 30 10 0 6 -13 10 -30 10 -28 0 -30 3 -30 35 0 19
-4 35 -10 35 -5 0 -10 -16 -10 -35 0 -28 -4 -35 -20 -35 -15 0 -20 7 -20 29 0
17 -4 33 -10 36 -6 4 -10 -8 -10 -29z m60 -81 c0 -18 -5 -25 -20 -25 -15 0
-20 7 -20 25 0 18 5 25 20 25 15 0 20 -7 20 -25z"/>
<path d="M2900 2764 l-95 -85 -3 71 -3 70 -34 0 -35 0 0 -103 c0 -91 -2 -106
-20 -122 -15 -14 -20 -31 -20 -72 0 -51 1 -53 20 -43 20 11 20 8 20 -160 l0
-170 275 0 274 0 3 176 c2 97 0 178 -4 181 -5 2 -8 -75 -8 -171 l0 -176 -265
0 -265 0 0 175 c0 96 -4 175 -8 175 -4 0 -13 -5 -20 -12 -9 -9 -12 -2 -12 33
0 33 6 51 20 64 17 16 20 31 20 112 0 92 0 93 25 93 23 0 24 -3 27 -72 l3 -72
100 87 c55 48 103 87 107 87 4 0 73 -57 153 -126 l146 -126 -2 -49 c-2 -27 0
-52 4 -55 4 -4 7 20 7 52 l0 60 -154 132 c-85 73 -156 132 -158 131 -2 0 -46
-38 -98 -85z"/>
<path d="M350 2460 l0 -280 -30 0 c-16 0 -30 -4 -30 -10 0 -5 14 -10 30 -10
25 0 30 -4 30 -24 0 -20 -6 -25 -32 -29 l-33 -4 33 -1 c30 -2 32 -5 32 -37 0
-19 5 -35 10 -35 6 0 10 16 10 35 0 28 4 35 20 35 15 0 20 -7 20 -29 0 -17 5
-33 10 -36 6 -4 10 8 10 29 l0 36 288 2 287 3 -285 5 -285 5 -3 23 -3 22 285
0 c184 0 286 4 286 10 0 6 -102 10 -285 10 l-285 0 0 280 c0 180 -4 280 -10
280 -6 0 -10 -100 -10 -280 0 -273 0 -280 -20 -280 -20 0 -20 7 -20 280 0 180
-4 280 -10 280 -6 0 -10 -100 -10 -280z m60 -325 c0 -18 -5 -25 -20 -25 -15 0
-20 7 -20 25 0 18 5 25 20 25 15 0 20 -7 20 -25z"/>
<path d="M2553 2682 c-35 -16 -43 -32 -18 -32 12 0 15 -14 15 -70 l0 -70 -44
0 c-85 0 -145 -86 -113 -162 9 -20 27 -44 41 -53 26 -17 34 -16 98 10 10 4 18
1 20 -8 2 -12 8 -12 38 1 25 11 30 17 18 19 -16 4 -18 24 -20 192 l-3 188 -32
-15z m-15 -205 c7 -6 12 -36 12 -83 0 -70 -1 -74 -25 -80 -39 -10 -73 4 -90
36 -45 86 32 182 103 127z"/>
<path d="M2871 2664 c-15 -19 -21 -41 -21 -74 0 -62 28 -100 73 -100 35 1 57
14 75 45 10 17 11 18 12 3 0 -27 45 -51 84 -46 30 3 33 2 25 -13 -5 -10 -9
-26 -9 -36 1 -20 27 35 38 77 20 80 -7 161 -56 168 -27 4 -65 -35 -79 -80
l-10 -33 -15 37 c-34 77 -81 98 -117 52z m39 3 c-14 -7 -30 -28 -37 -47 -9
-27 -12 -30 -12 -12 -1 33 28 72 53 72 20 0 19 -1 -4 -13z m172 -3 c-12 -8
-31 -32 -42 -52 -10 -20 -19 -31 -20 -24 -1 32 44 92 69 92 11 0 9 -4 -7 -16z"/>
<path d="M530 2631 l25 -7 3 -155 c2 -153 2 -156 -20 -167 -19 -9 -8 -11 57
-11 77 0 79 0 48 14 -32 14 -33 16 -33 75 l0 60 59 0 c54 0 62 3 85 31 45 53
30 127 -31 158 -12 6 -65 11 -120 10 -56 -1 -87 -4 -73 -8z m175 -26 c36 -35
34 -88 -5 -126 -22 -22 -37 -29 -57 -27 -28 3 -28 3 -31 91 l-3 87 36 0 c25 0
44 -8 60 -25z"/>
<path d="M3410 2441 l0 -181 50 0 50 0 0 60 0 60 31 0 c110 0 171 123 100 202
-29 33 -31 33 -130 36 l-101 4 0 -181z m158 71 c4 -28 -14 -52 -39 -52 -16 0
-19 8 -19 41 0 38 1 40 28 37 19 -2 28 -9 30 -26z"/>
<path d="M4082 2588 c-6 -6 -12 -17 -12 -23 0 -6 -11 -22 -25 -35 -28 -26 -33
-60 -10 -60 12 0 15 -15 15 -79 0 -65 4 -83 21 -105 19 -25 26 -27 83 -24 l61
3 3 37 c3 35 2 36 -30 35 l-33 -2 -3 68 -3 67 36 0 c33 0 35 2 35 35 0 33 -2
35 -34 35 -30 0 -35 3 -38 28 -2 20 -9 28 -28 30 -14 2 -31 -3 -38 -10z"/>
<path d="M2776 2538 c-9 -5 -16 -19 -15 -31 l0 -22 9 21 c10 25 30 41 30 25 0
-6 -3 -11 -7 -11 -11 0 -33 -50 -33 -72 0 -27 45 -68 73 -68 31 0 57 29 57 63
0 29 -49 92 -79 100 -10 2 -26 0 -35 -5z"/>
<path d="M3177 2534 c-16 -9 -27 -18 -24 -21 3 -2 17 3 31 12 14 10 26 13 26
9 0 -5 -13 -16 -28 -25 -16 -9 -36 -33 -46 -53 -17 -36 -17 -39 0 -57 60 -66
152 53 98 129 -18 26 -20 26 -57 6z"/>
<path d="M3755 2507 c-57 -57 -59 -150 -6 -209 25 -28 35 -32 94 -36 98 -6
117 1 117 44 0 29 -3 34 -17 30 -69 -19 -120 -11 -131 22 -3 9 18 12 83 12
l87 0 -4 57 c-4 48 -10 61 -37 85 -27 24 -39 28 -92 28 -56 0 -64 -3 -94 -33z
m123 -39 c22 -22 13 -38 -21 -38 -41 0 -49 7 -36 31 11 22 39 25 57 7z"/>
<path d="M4294 2517 c-54 -46 -30 -112 54 -148 64 -28 55 -43 -23 -36 l-65 6
0 -27 c0 -43 17 -52 96 -52 93 0 124 21 124 84 0 48 -19 70 -82 99 -48 21 -51
42 -5 34 17 -3 39 -8 48 -12 11 -4 19 3 28 22 18 38 -6 53 -85 53 -52 0 -68
-4 -90 -23z"/>
<path d="M1060 2513 c-34 -15 -34 -15 -12 -26 20 -9 22 -17 22 -88 0 -69 -2
-80 -22 -93 -21 -15 -20 -16 35 -16 l57 0 -20 20 c-18 18 -20 31 -18 88 3 59
6 68 29 81 15 9 36 11 52 7 27 -6 27 -8 27 -91 0 -69 -3 -86 -17 -94 -14 -8
-3 -10 42 -10 46 0 55 2 38 9 -21 9 -23 16 -23 89 l0 80 41 13 c37 11 43 10
55 -7 9 -12 14 -46 14 -92 0 -67 -2 -74 -22 -83 -17 -6 -7 -9 42 -9 49 0 59 3
43 9 -21 9 -23 16 -23 84 0 124 -30 157 -108 117 -39 -20 -40 -20 -57 -1 -21
23 -50 25 -85 5 -34 -20 -48 -18 -52 4 -3 18 -5 19 -38 4z"/>
<path d="M1481 2511 c-31 -16 -32 -18 -12 -24 20 -5 21 -10 21 -166 0 -142 -2
-161 -17 -170 -14 -8 -3 -10 42 -10 46 0 55 2 38 9 -21 8 -23 16 -23 75 0 64
1 65 24 59 35 -8 93 20 116 58 25 41 25 83 1 128 -24 47 -60 59 -106 37 -34
-16 -35 -16 -35 3 0 24 -5 24 -49 1z m144 -41 c10 -11 20 -42 23 -70 4 -43 1
-55 -18 -75 -25 -27 -50 -31 -81 -15 -16 9 -19 22 -19 89 0 43 3 81 7 84 14
15 70 6 88 -13z"/>
<path d="M865 2508 c-22 -12 -45 -37 -45 -50 0 -19 31 -6 42 17 22 49 68 24
68 -37 0 -33 -4 -38 -27 -44 -82 -20 -109 -66 -58 -100 22 -15 26 -14 55 3 30
17 32 17 41 1 9 -17 12 -17 42 -1 30 16 30 18 10 21 -22 3 -23 8 -23 83 0 66
-3 82 -20 99 -22 22 -54 25 -85 8z m65 -147 c0 -33 -21 -54 -47 -49 -30 6 -28
45 4 62 39 21 43 20 43 -13z"/>
<path d="M1774 2486 c-30 -30 -34 -40 -34 -87 0 -57 16 -87 58 -108 29 -15 81
0 108 31 l19 21 -32 -17 c-18 -9 -39 -16 -48 -16 -26 0 -75 55 -75 84 0 26 1
26 75 26 69 0 75 2 75 21 0 30 -53 79 -85 79 -17 0 -39 -12 -61 -34z m88 -3
c33 -29 22 -43 -32 -43 -54 0 -62 10 -33 42 20 22 41 23 65 1z"/>
<path d="M1991 2501 c-33 -17 -33 -19 -13 -25 20 -7 22 -14 22 -87 0 -73 -2
-80 -22 -89 -17 -6 -4 -9 47 -8 44 0 61 3 45 7 -23 6 -25 12 -28 80 -3 84 7
103 52 99 22 -2 31 1 31 12 0 22 -43 25 -66 4 -18 -16 -19 -16 -19 4 0 26 -5
27 -49 3z"/>
<path d="M2213 2510 c-34 -14 -63 -68 -63 -118 0 -37 6 -50 34 -78 19 -19 41
-34 50 -34 22 0 69 25 86 44 11 15 10 15 -16 1 -16 -8 -37 -15 -46 -15 -27 0
-67 42 -74 78 l-6 32 75 0 c42 0 78 4 81 8 7 11 -21 64 -41 80 -19 14 -48 15
-80 2z m61 -26 c31 -30 20 -44 -34 -44 -54 0 -58 4 -34 38 18 26 46 28 68 6z"/>
<path d="M2924 2443 c-45 -46 -94 -128 -94 -158 0 -9 13 -30 29 -46 29 -29 31
-29 145 -29 103 0 118 2 136 20 43 43 16 132 -64 215 -59 62 -91 62 -152 -2z
m56 23 c-31 -18 -82 -80 -116 -143 -14 -26 -22 -37 -18 -23 3 14 13 38 21 53
19 39 106 127 124 127 8 -1 3 -7 -11 -14z"/>
</g>
</svg>
